<?xml version="1.0" standalone="no"?>
<!DOCTYPE svg PUBLIC "-//W3C//DTD SVG 20010904//EN"
 "http://www.w3.org/TR/2001/REC-SVG-20010904/DTD/svg10.dtd">
<svg version="1.0" xmlns="http://www.w3.org/2000/svg"
 width="512.000000pt" height="512.000000pt" viewBox="0 0 512.000000 512.000000"
 preserveAspectRatio="xMidYMid meet">
<metadata>
Created by potrace 1.11, written by Peter Selinger 2001-2013
</metadata>
<g transform="translate(0.000000,512.000000) scale(0.100000,-0.100000)"
fill="#000000" stroke="none">
<path d="M2405 5114 c-648 -44 -1248 -323 -1695 -790 -807 -841 -937 -2138
-315 -3128 185 -294 460 -575 757 -772 129 -86 386 -216 533 -270 116 -42 319
-95 455 -118 588 -99 1213 18 1719 319 382 228 678 524 905 905 581 973 434
2242 -354 3064 -403 421 -942 696 -1510 770 -120 16 -392 27 -495 20z m445
-1089 c279 -62 531 -192 723 -374 l88 -84 -73 -74 c-40 -40 -76 -73 -81 -73
-5 0 -44 32 -86 71 -173 162 -373 265 -620 320 -123 27 -372 27 -502 -1 -264
-56 -460 -162 -654 -354 -165 -162 -279 -361 -337 -586 -43 -164 -50 -376 -19
-538 77 -404 322 -732 681 -912 307 -155 643 -182 968 -79 326 104 592 328
746 629 68 133 91 197 121 340 33 160 30 372 -9 537 -26 111 -30 125 -60 194
l-15 36 84 83 83 83 31 -68 c36 -78 82 -218 107 -325 16 -68 18 -153 21 -930
l4 -855 -28 26 c-35 32 -401 349 -426 368 -16 13 -21 11 -50 -16 -166 -155
-428 -287 -688 -345 -90 -20 -131 -23 -304 -23 -154 0 -220 4 -285 18 -473 99
-848 385 -1060 805 -159 318 -198 680 -110 1028 147 581 634 1020 1235 1113
94 15 427 6 515 -14z m450 -1240 c-423 -423 -776 -771 -782 -773 -7 -1 -149
134 -316 301 l-303 303 -2 142 c-2 78 -1 142 2 142 4 0 141 -135 306 -300 165
-165 304 -300 310 -300 6 0 357 347 780 770 l770 770 3 -142 2 -143 -770 -770z"/>
</g>
</svg>
